#!OML:ASF H:\Terrain\Patient Classification 1\Walking\liu\liu.ASF
:FULLY-SPECIFIED
:DEGREES
233
root 9.24803 16.5441 -0.726636 7.69952 -3.46683 -5.93351
lowerback -7.46217 1.77726 1.75783
upperback -0.605573 2.10273 3.14551
thorax 3.50209 1.04998 2.48694
lowerneck -20.451 -6.15938 -13.097
upperneck 21.3408 -8.1826 14.2712
head 11.5246 -3.11795 6.18227
rclavicle -8.38623e-015 3.67752e-014
rhumerus -39.9031 18.6056 -88.1488
rradius 52.4088
rwrist -26.7257
rhand -30.8999 -28.3833
rfingers 7.12502
rthumb -4.18649 -58.3219
lclavicle -8.38623e-015 3.67752e-014
lhumerus -47.3927 0.986646 87.5137
lradius 22.2205
lwrist -2.51362
lhand -7.93566 -23.8734
lfingers 7.12502
lthumb 17.9707 5.31635
rfemur 16.3247 4.68073 29.8863
rtibia 4.77083e-014
rfoot -12.9548 0.216871
rtoes -21.2314
lfemur -40.8996 3.33526 -12.8004
ltibia 22.334
lfoot -9.82326 9.48688
ltoes -18.9815
234
root 9.2915 16.5276 -0.534706 7.80569 -3.72467 -5.93949
lowerback -7.85762 1.7603 1.73587
upperback -0.674818 2.06409 3.26577
thorax 3.64746 1.02911 2.63397
lowerneck -20.4829 -6.09906 -13.2283
upperneck 21.6376 -8.07354 14.2382
head 11.6283 -3.08157 6.22522
rclavicle -3.64024e-015 -2.38542e-015
rhumerus -40.3706 18.9861 -88.3075
rradius 52.4367
rwrist -26.8967
rhand -31.3209 -29.8509
rfingers 7.12502
rthumb -4.59301 -59.7811
lclavicle -3.64024e-015 -2.38542e-015
lhumerus -47.5144 1.07645 87.9407
lradius 22.3288
lwrist -2.03248
lhand -7.66725 -23.5613
lfingers 7.12502
lthumb 18.229 5.6045
rfemur 16.8997 4.86696 29.6151
rtibia 3.18055e-015
rfoot -12.7112 0.418758
rtoes -22.4285
lfemur -40.6334 3.52797 -13.1458
ltibia 23.0158
lfoot -8.92313 8.79353
ltoes -18.4483
235
root 9.32798 16.5187 -0.355669 7.84893 -3.845 -5.95668
lowerback -8.06738 1.7692 1.77817
upperback -0.748489 2.06608 3.27108
thorax 3.68949 1.03051 2.62218
lowerneck -20.3803 -6.08875 -13.1606
upperneck 21.7081 -8.08436 14.1721
head 11.6297 -3.092 6.18868
rclavicle -1.03244e-014 7.55382e-015
rhumerus -40.6447 18.7561 -88.4854
rradius 52.3384
rwrist -26.6564
rhand -31.1064 -31.848
rfingers 7.12502
rthumb -4.38592 -61.7825
lclavicle -1.03244e-014 7.55382e-015
lhumerus -47.5761 0.623261 88.4948
lradius 22.4291
lwrist -0.968406
lhand -7.87304 -24.1519
lfingers 7.12502
lthumb 18.031 5.03232
rfemur 17.4939 4.9035 29.4175
rtibia 1.90833e-014
rfoot -12.3065 0.776612
rtoes -22.9696
lfemur -40.5001 3.31866 -13.156
ltibia 23.6015
lfoot -7.23075 8.6936
ltoes -13.319
236
root 9.36221 16.5301 -0.194414 7.83002 -3.97621 -5.99258
lowerback -7.99233 1.81817 1.84825
upperback -0.846084 2.13394 3.20909
thorax 3.54898 1.06607 2.51994
lowerneck -20.1172 -6.07775 -13.0742
upperneck 21.5549 -8.1342 14.2497
head 11.529 -3.10889 6.18926
rclavicle 1.37161e-014 3.00165e-014
rhumerus -40.8953 18.4193 -88.7511
rradius 52.0539
rwrist -26.5942
rhand -30.7681 -30.8837
rfingers 7.12502
rthumb -4.05924 -60.8247
lclavicle 1.37161e-014 3.00165e-014
lhumerus -47.7218 0.179449 88.7954
lradius 22.733
lwrist -0.513596
lhand -6.15012 -23.2008
lfingers 7.12502
lthumb 19.688 5.82219
rfemur 18.0286 4.9351 29.2792
rtibia 0
rfoot -11.4287 0.932256
rtoes -23.4493
lfemur -40.5049 3.19606 -13.0693
ltibia 24.0915
lfoot -4.783 8.88978
ltoes -11.0292
237
root 9.39458 16.541 -0.0308913 7.82974 -4.17201 -5.99064
lowerback -8.03402 1.8088 1.75772
upperback -0.824448 2.12825 3.17506
thorax 3.59285 1.062 2.53701
lowerneck -20.2067 -6.0074 -12.8861
upperneck 21.5207 -8.11476 14.3724
head 11.5287 -3.06698 6.20657
rclavicle 4.2366e-015 -2.04748e-014
rhumerus -40.9001 18.5469 -89.0308
rradius 51.6088
rwrist -26.9427
rhand -30.7583 -29.6388
rfingers 7.12502
rthumb -4.04976 -59.5801
lclavicle 4.2366e-015 -2.04748e-014
lhumerus -47.584 0.136084 88.7705
lradius 23.0385
lwrist -0.797782
lhand -7.45451 -23.3775
lfingers 7.12502
lthumb 18.4336 5.76913
rfemur 18.5373 5.0217 29.1308
rtibia 5.40694e-014
rfoot -10.496 0.754265
rtoes -24.5245
lfemur -40.5987 3.47148 -13.1901
ltibia 24.6955
lfoot -2.53796 8.90305
ltoes -13.0784
238
root 9.42406 16.5439 0.145266 7.84228 -4.41381 -5.81681
lowerback -8.15025 1.79407 1.43471
upperback -0.809601 2.13446 3.13292
thorax 3.6627 1.06042 2.68031
lowerneck -20.7374 -5.99837 -12.538
upperneck 21.858 -8.1457 14.1924
head 11.7397 -3.04972 6.08295
rclavicle -8.15017e-015 3.51849e-014
rhumerus -41.15 18.7497 -89.2567
rradius 51.6006
rwrist -27.4528
rhand -30.9552 -32.4064
rfingers 7.12502
rthumb -4.2399 -62.3439
lclavicle -8.15017e-015 3.51849e-014
lhumerus -47.3231 0.020183 88.8846
lradius 23.0757
lwrist -0.78714
lhand -6.96567 -22.8514
lfingers 7.12502
lthumb 18.9038 6.24999
rfemur 19.1129 5.14235 28.7804
rtibia 3.18055e-014
rfoot -9.70014 0.596324
rtoes -27.5438
lfemur -40.5286 3.84031 -13.5746
ltibia 25.4384
lfoot -1.14594 9.02744
ltoes -14.3942
239
root 9.46285 16.5546 0.335284 7.75872 -4.71711 -5.39406
lowerback -8.19228 1.87005 0.974859
upperback -0.90919 2.28134 3.07864
thorax 3.56172 1.12813 2.8972
lowerneck -20.833 -6.11099 -12.5645
upperneck 22.1777 -8.26052 13.9611
head 11.8873 -3.12528 5.98935
rclavicle 5.03174e-015 9.74045e-015
rhumerus -41.819 18.5401 -89.2559
rradius 51.714
rwrist -27.5941
rhand -30.7655 -35.6615
rfingers 7.12502
rthumb -4.05671 -65.6026
lclavicle 5.03174e-015 9.74045e-015
lhumerus -47.3579 -0.281423 89.352
lradius 23.0072
lwrist -0.694757
lhand -6.35082 -22.7324
lfingers 7.12502
lthumb 19.4951 6.31023
rfemur 19.8137 5.30194 28.0913
rtibia -3.18055e-014
rfoot -8.87836 0.478083
rtoes -30.084
lfemur -40.1241 4.01141 -14.1588
ltibia 26.2695
lfoot -0.651071 9.32947
ltoes -12.3133
240
root 9.51229 16.5748 0.530238 7.55983 -4.93517 -4.64243
lowerback -8.27528 1.84158 0.277336
upperback -0.970226 2.31088 2.96311
thorax 3.52037 1.13471 3.17425
lowerneck -20.3251 -6.03736 -12.7208
upperneck 22.0023 -8.11751 13.8773
head 11.6989 -3.10436 6.0024
rclavicle 5.97534e-014 3.93594e-014
rhumerus -42.1703 18.1662 -89.2134
rradius 51.1342
rwrist -27.349
rhand -30.3209 -36.0374
rfingers 7.12502
rthumb -3.62739 -65.9862
lclavicle 5.97534e-014 3.93594e-014
lhumerus -47.3771 -0.376893 89.731
lradius 22.8527
lwrist -0.934457
lhand -5.3459 -22.7614
lfingers 7.12502
lthumb 20.461 6.18055
rfemur 20.5886 5.33925 27.0502
rtibia -8.26944e-014
rfoot -7.8991 0.144334
rtoes -27.9613
lfemur -39.6729 4.20423 -15.2132
ltibia 27.3093
lfoot -0.605902 8.965
ltoes -10.7936
241
root 9.55726 16.594 0.720254 7.50204 -4.9465 -4.12438
lowerback -8.59179 1.65976 -0.177855
upperback -0.971908 2.10901 2.86432
thorax 3.69276 1.02662 3.31849
lowerneck -20.1377 -5.8444 -12.6626
upperneck 21.8546 -7.86674 13.8855
head 11.5627 -2.99315 6.03337
rclavicle -3.31722e-014 -1.59028e-014
rhumerus -42.431 18.1424 -89.3946
rradius 50.7318
rwrist -27.3794
rhand -29.2215 -34.0457
rfingers 7.12502
rthumb -2.5656 -64.0101
lclavicle -3.31722e-014 -1.59028e-014
lhumerus -47.1884 -0.42471 89.9662
lradius 22.6788
lwrist -0.747246
lhand -5.11438 -22.6174
lfingers 7.12502
lthumb 20.6835 6.30048
rfemur 21.1961 5.20874 26.3207
rtibia 4.45278e-014
rfoot -6.81704 -0.348818
rtoes -23.3909
lfemur -39.4603 4.75707 -16.2626
ltibia 28.1758
lfoot -0.549035 7.61876
ltoes -12.749
242
root 9.59933 16.6071 0.921517 7.65968 -4.81425 -4.22174
lowerback -9.34609 1.58847 0.15066
upperback -0.873478 1.97014 2.76795
thorax 4.23882 0.956386 3.04845
lowerneck -20.4203 -5.85044 -12.5136
upperneck 21.965 -7.94796 14.037
head 11.675 -2.98853 6.05759
rclavicle -1.63997e-014 4.37326e-015
rhumerus -42.5701 17.8984 -89.5973
rradius 50.5509
rwrist -27.4531
rhand -27.3346 -29.7137
rfingers 7.12502
rthumb -0.743245 -59.6921
lclavicle -1.63997e-014 4.37326e-015
lhumerus -46.7496 -0.946793 90.1374
lradius 22.5608
lwrist -0.409379
lhand -5.66967 -22.5519
lfingers 7.12502
lthumb 20.1499 6.42314
rfemur 21.6304 5.02729 26.2412
rtibia 1.59028e-014
rfoot -5.67923 -0.918844
rtoes -18.9983
lfemur -39.4473 5.5813 -16.7815
ltibia 28.8595
lfoot -0.790633 5.85322
ltoes -13.4885
243
root 9.5999 16.6048 1.02148 7.67431 -4.81769 -4.09154
lowerback -8.75939 1.59155 -0.344295
upperback -1.02615 2.03878 2.71879
thorax 3.73332 0.990084 3.25761
lowerneck -20.5414 -5.96233 -12.6078
upperneck 21.9951 -8.16353 14.3746
head 11.7696 -3.05008 6.17176
rclavicle 8.07563e-017 3.55825e-014
rhumerus -42.2774 17.0354 -89.5786
rradius 49.5103
rwrist -27.0224
rhand -26.2623 -25.9797
rfingers 7.12502
rthumb 0.292417 -55.9593
lclavicle 8.07563e-017 3.55825e-014
lhumerus -46.2904 -1.522 90.1864
lradius 22.4839
lwrist -0.775327
lhand -6.32247 -22.9078
lfingers 7.12502
lthumb 19.5223 6.13208
rfemur 19.295 4.79693 26.1736
rtibia 4.86011
rfoot -6.11334 -1.04065
rtoes -18.6534
lfemur -39.6292 6.1562 -17.0555
ltibia 29.3644
lfoot -0.844218 4.73555
ltoes -11.6223
244
root 9.62365 16.6113 1.13976 7.66033 -4.86362 -4.04848
lowerback -8.09495 1.56527 -0.528227
upperback -1.31773 2.0335 2.73433
thorax 3.05364 0.99612 3.34379
lowerneck -20.6429 -6.01147 -12.6352
upperneck 22.2996 -8.22807 14.2945
head 11.9133 -3.08549 6.14755
rclavicle -1.93815e-015 1.68967e-014
rhumerus -42.3553 16.3695 -89.6088
rradius 48.5001
rwrist -26.6441
rhand -26.7007 -26.0096
rfingers 7.12502
rthumb -0.130995 -55.9893
lclavicle -1.93815e-015 1.68967e-014
lhumerus -46.2065 -1.8034 90.2827
lradius 22.5495
lwrist -1.04625
lhand -6.24033 -23.3574
lfingers 7.12502
lthumb 19.6013 5.67443
rfemur 16.8965 4.63201 26.1131
rtibia 10.001
rfoot -6.51367 -1.15437
rtoes -22.568
lfemur -39.4617 6.53887 -17.2637
ltibia 29.7816
lfoot -1.19308 4.14688
ltoes -9.89005
245
root 9.67487 16.6316 1.33201 7.44542 -4.92012 -3.62306
lowerback -8.14425 1.48169 -0.68536
upperback -1.36844 1.94239 2.54896
thorax 3.03527 0.950367 3.23064
lowerneck -20.5735 -5.95912 -12.4802
upperneck 22.4697 -8.20223 14.182
head 11.9465 -3.07535 6.08818
rclavicle 1.66824e-014 -2.42517e-014
rhumerus -42.8076 15.9718 -89.7707
rradius 48.129
rwrist -26.4453
rhand -27.6639 -28.6702
rfingers 7.12502
rthumb -1.06127 -58.6473
lclavicle 1.66824e-014 -2.42517e-014
lhumerus -46.1643 -1.97958 90.2671
lradius 22.6376
lwrist -1.14617
lhand -5.15571 -23.4001
lfingers 7.12502
lthumb 20.6438 5.52203
rfemur 15.4747 3.5255 25.0702
rtibia 14.2175
rfoot -6.47352 -0.437343
rtoes -24.5173
lfemur -38.5745 6.71293 -17.982
ltibia 30.0349
lfoot -1.85386 3.60076
ltoes -9.82475
